<svg width="30" height="30" viewBox="0 0 20 21" stroke="white" xmlns="http://www.w3.org/2000/svg">
<path d="M10.3906 1.40625C10.1562 1.28906 9.84375 1.28906 9.60938 1.40625L1.67969 5.07812L9.60938 8.75C9.84375 8.86719 10.1562 8.86719 10.3906 8.75L18.3203 5.07812L10.3906 1.40625ZM10.9375 0.273438L19.4531 4.21875C19.8047 4.375 20 4.72656 20 5.07812C20 5.42969 19.8047 5.78125 19.4531 5.9375L10.9375 9.88281C10.3516 10.1562 9.64844 10.1562 9.10156 9.88281L0.546875 5.9375C0.195312 5.78125 0 5.42969 0 5.07812C0 4.72656 0.195312 4.375 0.546875 4.21875L9.10156 0.273438C9.64844 0 10.3516 0 10.9375 0.273438ZM1.875 8.59375L3.35938 9.29688L1.67969 10.0781L9.60938 13.75C9.84375 13.8672 10.1562 13.8672 10.3906 13.75L18.3203 10.0781L16.6406 9.29688L18.125 8.59375L19.4531 9.21875C19.8047 9.375 20 9.72656 20 10.0781C20 10.4297 19.8047 10.7812 19.4531 10.9375L10.9375 14.8828C10.3516 15.1562 9.64844 15.1562 9.10156 14.8828L0.546875 10.9375C0.195312 10.7812 0 10.4297 0 10.0781C0 9.72656 0.195312 9.375 0.546875 9.21875L1.875 8.59375ZM0.546875 14.2188L1.875 13.5938L3.35938 14.2969L1.67969 15.0781L9.60938 18.75C9.84375 18.8672 10.1562 18.8672 10.3906 18.75L18.3203 15.0781L16.6406 14.2969L18.125 13.5938L19.4531 14.2188C19.8047 14.375 20 14.7266 20 15.0781C20 15.4297 19.8047 15.7812 19.4531 15.9375L10.9375 19.8828C10.3516 20.1562 9.64844 20.1562 9.10156 19.8828L0.546875 15.9375C0.195312 15.7812 0 15.4297 0 15.0781C0 14.7266 0.195312 14.375 0.546875 14.2188Z" fill="black"/>
</svg>
